<?xml version="1.0" encoding="UTF-8" standalone="no"?>
<!-- Created with Inkscape (http://www.inkscape.org/) -->

<svg
   version="1.1"
   id="svg2"
   width="1080"
   height="1105"
   viewBox="0 0 1080 1105"
   sodipodi:docname="logo.svg"
   inkscape:version="1.1 (1:1.1+202105261517+ce6663b3b7)"
   xmlns:inkscape="http://www.inkscape.org/namespaces/inkscape"
   xmlns:sodipodi="http://sodipodi.sourceforge.net/DTD/sodipodi-0.dtd"
   xmlns="http://www.w3.org/2000/svg"
   xmlns:svg="http://www.w3.org/2000/svg">
  <defs
     id="defs6">
    <clipPath
       clipPathUnits="userSpaceOnUse"
       id="clipPath252">
      <rect
         style="fill:#0000ff"
         id="rect254"
         width="662.18048"
         height="604.39368"
         x="224.36272"
         y="62.408051" />
    </clipPath>
  </defs>
  <sodipodi:namedview
     id="namedview4"
     pagecolor="#ffffff"
     bordercolor="#666666"
     borderopacity="1.0"
     inkscape:pageshadow="2"
     inkscape:pageopacity="0.0"
     inkscape:pagecheckerboard="0"
     showgrid="false"
     inkscape:zoom="0.24117647"
     inkscape:cx="1192.0732"
     inkscape:cy="769.14634"
     inkscape:window-width="1322"
     inkscape:window-height="713"
     inkscape:window-x="0"
     inkscape:window-y="27"
     inkscape:window-maximized="1"
     inkscape:current-layer="g8" />
  <g
     inkscape:groupmode="layer"
     inkscape:label="Image"
     id="g8">
    <path
       style="fill:#1a1a19;stroke:none"
       d="M 0,22 V 1089 H 1080 V 22 H 0 M 1015,44 V 715 H 65 V 44 h 950 M 321,263 c -1.242,8.407 -4.444,16.686 -6.349,25 -2.245,9.8 -4.275,21.975 -2.423,31.996 0.717,3.877 7.36,10.31 10.423,4.685 2.435,-4.47 1.954,-14.358 3.142,-19.681 2.727,-12.212 7.217,-24.135 11.091,-36 2.113,-6.471 4.616,-17.807 12.116,-19 -5.222,18.127 -17.775,34.59 -18.405,54 -0.26,8.006 6.056,10.334 7.971,17.039 C 340.919,329.275 339,340.45 339,349 h 82 v 12 h -55 l -28,1 1,31 v 56 h 113 v -38 h -82 v -12 h 82 v -88 h -61 v -1 c 8.254,-3.849 14.991,-13.188 19.38,-21 1.561,-2.78 3.229,-11.882 -3.186,-8.863 -3.358,1.58 -5.295,6.461 -8.194,8.863 3.723,-6.55 5.35,-26.631 -7.999,-23.928 -4.822,0.976 -8.568,7.16 -11.114,10.928 -7.437,11.001 -14.061,22.38 -6.887,35 h -11 c 2.258,-8.272 5.708,-16.318 9.489,-24 1.711,-3.475 5.517,-7.064 5.933,-11 0.654,-6.18 -8.126,-11.201 -13.047,-7.397 -4.542,3.511 -7.669,8.834 -12.375,12.397 5.12,-8.364 21.258,-31.656 -1,-28 3.13,-4.109 10.708,-7.852 15.741,-4.358 2.605,1.808 4.871,7.535 8.942,5.272 C 386.509,247.895 368.071,235.316 362,235 c 3.602,-9.502 11.475,-18.249 17.921,-26 C 395.399,190.385 413.253,174.523 433,160.576 556.639,73.2527 746.789,122.785 806,265 c 1.865,-9.015 -9.367,-24.349 -13.719,-32 -18,-31.644 -42.746,-58.255 -72.281,-79.421 -84.263,-60.3845 -203.293,-60.0537 -288,-0.859 -21.011,14.683 -39.091,32.211 -54.997,52.28 -6.447,8.134 -10.928,18.128 -17.763,25.852 -4.047,4.572 -11.68,3.103 -17.24,4.383 -12.056,2.776 -21.678,8.095 -32,15.109 -3.613,2.455 -8.862,5.301 -10.381,9.671 -1.794,5.161 2.633,12.155 8.382,11.152 4.773,-0.832 9.093,-5.499 12.999,-8.167 m 246,-131 3,50 c 8.22,-0.64 6.794,-10.818 5,-17 3.51,-0.845 8.693,-0.632 11.258,-3.514 4.053,-4.554 5.032,-23.58 0.308,-27.758 -4.85,-4.29 -13.838,-2.791 -19.566,-1.728 m -21,53 c 6.136,-0.979 5.394,-4.772 5,-10 l 11,8 c -0.132,-15.906 -5.399,-35.154 -11,-50 l -7.958,2.6 -0.039,12.4 2.997,37 m 60,-52 -12,49 c 6.293,1.42 6.289,-4.43 11,-7 0.004,5.498 -0.28,9.277 6,10 l 3,-51 -8,-1 m -31,26 v -9 l 10e-4,-6 c 0.02,-2.855 1.971,-11.605 5.972,-5.677 4.205,6.228 2.27,20.403 -5.973,20.677 m -67,-16 c 1.389,4.182 4.082,3.89 8,3 1.887,11.1 6.566,22.388 10.309,33 0.88,2.496 2.28,10.526 6.424,9.11 3.816,-1.305 0.801,-8.603 0.115,-11.11 -3.001,-10.964 -5.785,-22.385 -9.848,-33 3.539,-1.278 5.339,-2.176 6,-6 l -21,5 m 121,43 c -6.656,-5.845 2.935,-13.779 -7,-17 -1.376,4.884 -4.529,12.032 -1.82,16.891 3.514,6.303 13.54,5.149 16.352,-0.935 6.016,-13.02 -2.256,-26.313 -0.532,-39.956 9.895,1.579 -0.658,16.671 7.886,15.824 6.692,-0.663 6.663,-13.934 2.886,-17.405 -6.445,-5.921 -17.533,-4.52 -19.304,4.582 -2.692,13.842 6.936,23.501 1.532,37.999 m -79,-35 4,19 c -5.287,-1.859 -5.834,-14.301 -4,-19 m 58,0 c -0.349,5.194 0.742,17.32 -5,19 l 5,-19 m -118,57 12,-6 -1,-4 -8,3 -9,-16 c 1.409,-0.564 7.75,-3.622 4.338,-5.855 -1.812,-1.186 -4.269,0.601 -6.245,0.144 -3.482,-0.805 -7.888,-7.836 -8.215,-11.246 -0.446,-4.645 5.353,-5.584 4.122,-11.043 -3.871,1.807 -13.34,5.297 -14.093,10.093 -0.59,3.757 4.308,8.997 6.287,11.907 6.585,9.678 12.989,19.483 19.806,29 m 194,-47 c -8.125,12.279 -22.209,29.527 -25,44 4.018,1.987 8.248,5.852 13,5.586 7.89,-0.44 14.622,-12.663 15,-19.586 6.825,-1.101 15.684,-11.658 12.332,-18.829 C 696.821,166.8 689.387,162.717 684,161 m -5,23 9,-15 c 9.468,4.79 -0.317,18.4 -9,15 m -218,11 v 1 c -11.834,5.618 -13.982,-17.451 -26,-8 7.559,10.859 17.929,19.379 26.91,29 1.72,1.842 7.129,9.863 10.043,5.623 4.517,-6.572 -14.039,-15.053 -9.332,-19.987 3.952,-4.143 15.661,19.641 19.073,11.041 1.239,-3.12 -3.061,-7.411 -4.705,-9.677 -5.633,-7.765 -11.557,-15.361 -17.363,-22.999 -1.714,-2.255 -4.198,-6.532 -7.581,-6.08 -9.976,1.334 6.148,17.926 8.955,20.079 m 218,23 v 1 h 14 c -1.321,1.576 -7.703,11.033 -0.93,10.079 3.525,-0.497 6.31,-5.585 8.354,-8.079 5.696,-6.945 20.547,-19.822 21.53,-28.999 0.795,-7.411 -7.328,-6.084 -10.954,-3.227 -11.302,8.902 -21.841,19.067 -32,29.226 m -3,-30 c 12.937,7.163 -13.948,23.263 -6.607,9.999 0.765,-1.382 1.731,-2.678 2.602,-3.994 L 676,188 m -262,27 6,-4 c 10.608,5.415 19.733,15.16 29,22.61 2.086,1.677 9.227,7.62 10.079,1.341 0.603,-4.45 -8.165,-10.001 -11.079,-12.527 -5.127,-4.444 -16.372,-11.209 -18.852,-17.594 -1.012,-2.606 0.502,-5.97 -0.148,-8.83 -6.506,3.098 -13.905,11.777 -15,19 m 45,49 h 1 c 41.046,-53.871 120.245,-70.048 180,-40.247 13.13,6.548 27.724,14.595 37,26.247 H 576 552 l -8.972,1.603 L 542,264 v 33 c 43.711,0 89.558,-3.93 133,1 L 564.522,451 531.279,497 517,520 c 18.412,4.383 41.082,1 60,1 6.362,0 17.146,2.047 22.816,-1.179 5.411,-3.079 9.616,-11.825 13.184,-16.821 8.841,-12.377 17.855,-24.631 26.71,-37 30.632,-42.79 61.438,-85.481 92.441,-128 15.736,-21.58 31.329,-43.271 46.849,-65 2.603,-3.644 15.557,-16.766 12.839,-21.397 C 789.674,247.915 775.799,250 772,250 h -60 l 13,-13 c 6.686,-0.198 18.504,-5.378 21.067,-12.174 2.031,-5.384 -4.999,-19.378 -11.106,-19.659 -3.363,-0.154 -6.652,3.72 -8.961,5.703 -6.627,5.689 -25.355,16.536 -27.539,25.086 -0.912,3.571 3.252,3.865 5.543,2.86 4.456,-1.954 8.837,-6.201 11.996,-9.816 h 1 l 3,6 c -5.823,2.9 -15.227,7.618 -14,15 -6.606,0 -15.771,1.637 -22,-0.742 -7.091,-2.709 -12.458,-11.136 -18,-16.084 -9.311,-8.314 -20.595,-15.269 -32,-20.312 -45.422,-20.083 -97.919,-15.49 -139,12.482 -13.405,9.128 -30.091,23.07 -36,38.656 m 249,-64 c -2.554,5.731 -7.298,12.221 -13,15 l -1,-1 14,-14 m 13,25 c 2.437,-1.666 4.672,-3.521 7.002,-5.339 1.297,-1.012 2.601,-2.096 3.997,-2.972 2.999,-1.881 9.261,-2.376 6.864,3.225 -2.675,6.254 -14.351,13.461 -17.863,5.086 m -349,26 c -4.421,-9.396 -24.644,-10.08 -31.182,-1.772 -3.877,4.926 -5.728,12.931 -7.871,18.772 -5.779,15.748 -15.752,38.003 -12.947,55 -7.438,-2.209 -6.243,-10.562 -5.961,-17 0.748,-17.036 7.742,-33.409 10.961,-50 -5.641,2.466 -12.879,11.129 -18.895,11.249 -9.936,0.198 -0.961,-11.247 1.896,-13.365 10.982,-8.141 22.706,-14.531 35.999,-17.366 8.16,-1.741 17.698,-1.733 24.957,2.835 4.064,2.557 8.107,8.322 3.043,11.647 m -51,-3 v 1 l 7,-3 -7,2 m 468,3 c -8.439,22.257 -30.64,43.698 -44.576,63 -31.488,43.615 -62.95,87.272 -94.284,131 -12.231,17.07 -24.57,34.071 -36.985,51 -4.402,6.003 -8.847,16.18 -15.444,19.972 C 592.239,519.118 581.182,517 575,517 H 520 L 537.522,491 569.255,447 680,294 H 579 554 L 545.028,292.397 544,281 v -30 h 245 m -449,53 17,-25 h 1 l -19,35 c -6.527,-3.582 -6.685,-10.162 -5.7,-17 1.777,-12.33 9.154,-29.949 16.91,-39.718 2.29,-2.884 7.846,-3.531 9.053,0.852 1.189,4.319 -4.797,10.368 -6.827,13.866 -5.387,9.281 -12.565,20.869 -12.436,32 m 467,-38 1,1 -1,-1 m -400,19 c -1.608,5.037 -4.84,9.035 -8.289,13 -2.671,3.07 -5.56,6.088 -8.711,8.671 -9.275,7.6 -18.262,3.318 -17.984,-8.671 0.183,-7.858 5.411,-14.704 9.655,-21 2.291,-3.398 6.174,-10.875 11.289,-9.199 13.357,4.376 0.754,25.036 -5.975,29.191 -2.75,1.698 -7.332,1.906 -8.848,5.151 -1.667,3.564 1.768,5.747 4.875,4.521 4.921,-1.943 9.346,-6.854 12.819,-10.668 3.541,-3.888 6.477,-8.491 11.169,-10.996 m 401.333,-16.333 0.334,0.666 -0.334,-0.666 M 359,324 c -7.985,3.992 -8,-7.604 -8,-13 0,-11.523 6.586,-23.068 11,-33 1.122,-2.525 -1.555,-1.111 -2,-1 2.688,-4.049 15.748,-12.208 12.928,-0.999 C 369.369,290.15 350.203,308.182 359,324 m 34,-49 -13,21 c 9.359,-2.225 14.785,-11.847 15,-21 h -2 m -52,4 1,1 -1,-1 m 68,2 -3,3 1,-3 h 2 m -49,2 1,1 -1,-1 m -9,18 -2,10 h -4 l 6,-10 m 35,1 -5,4 5,-4 m -31,3 1,1 -1,-1 m 180,8 h 14 l 1,-1 c -2.972,-4.845 -15.808,-6.96 -15,1 m -13,111 c 0,6.573 -2.35,19.087 1.938,24.566 4.301,5.496 22.641,2.52 29.062,2.43 2.717,-0.038 6.087,0.089 7.821,-2.43 C 564.474,443.259 562,430.279 562,424 h 10 v -38 h -10 l -11,-56 h -1 l -1,23 h -1 l -1,-9 -12,-1 v 9 h -1 v -17 h -1 l -11,51 h -33 v -75 c -5.842,0 -26.212,-3.144 -29.972,1.603 C 455.651,316.868 458,329.722 458,335 v 63 c 0,5.657 -2.573,19.85 1.028,24.397 2.629,3.319 12.186,1.603 15.972,1.603 h 47 m -169,-111 1,1 -1,-1 m 193,0 v 4 l -11,2 c 3.658,-0.871 14.806,0.057 11,-6 m 3,4 -1,2 1,-2 m -15,8 11,-3 c -3.498,-3.997 -8.852,-0.875 -11,3 m 14,-2 1,5 h 1 l -2,-5 m -2,34 v 1 h -11 l 11,-1 m 5,7 c 7.923,5.888 5.961,12.417 7.464,21 3.466,19.797 -1.464,39.995 -1.464,60 h -1 l -1,-9 c -5.094,3.035 -9.83,5.754 -16,4.67 -8.883,-1.561 -18.716,-14.099 -14.397,-23.391 3.637,-7.824 23.936,-1.746 29.794,-6.972 2.79,-2.489 1.603,-8.952 1.603,-12.307 -9.947,-0.785 -22.571,-1.43 -32,2 0,-10.276 -3.478,-27.595 5,-35 l -4,20 c 9.175,-5.441 20.654,-4.921 31,-3 l -5,-18 m -6,6 -7,-4 c 3.641,0.043 7.076,-0.288 7,4 m -17,15 1,1 -1,-1 m -2,1 1,1 -1,-1 m 25,49 1,1 -1,-1 m -17,1 1,1 -1,-1 m 15,0 1,1 -1,-1 m -217,32 c 6.586,24.078 22.243,47.515 37.35,67 92.841,119.754 282.71,125.7 382.805,12 19.009,-21.592 40.05,-49.393 46.845,-78 h -1 c -8.363,23.049 -23.755,44.652 -39.718,63 C 682.412,619.207 552.442,648.643 449,592.691 412.624,573.016 381.472,545.704 357.427,512 347.735,498.414 342.467,480.633 332,468 m 350,20 c -39.944,52.425 -116.313,71.021 -176,43.691 -15.008,-6.871 -28.612,-16.11 -41,-26.977 -5.624,-4.934 -9.949,-11.362 -16,-15.714 30.647,61.606 117.05,76.473 175,51.28 17.98,-7.817 34.904,-20.121 47.385,-35.28 3.491,-4.24 11.091,-11.266 10.615,-17 m -225,86 -2,9 2,-2 h 1 v 4 h 1 l 5,-9 -3,2 v -3 l -3,2 1,-3 h -2 m 215,2 1,5 -4,-3 3,9 3,-3 3,1 -6,-9 m -211,2 -1,1 1,-1 m 8,1 -2,10 h 1 l 1,-4 h 1 v 5 l 5,-9 h -1 l -1,3 h -1 v -4 h -1 l -1,3 h -1 v -4 m 191,2 c -1.205,4.839 0.031,8.505 5,10 -0.112,-4.634 -0.709,-7.748 -5,-10 m 1,2 3,7 h -1 l -2,-7 m -181,1 -2,9 3,-3 h 1 l -1,4 6,-9 -3,4 h -1 l 1,-5 h -1 l -1,3 h -1 l -1,-3 m 171,0 c -1.247,4.583 -0.494,9.728 5,10 l -5,-10 m 22,0 -1,1 1,-1 m -174,5 -2,10 h 1 l 4,-9 -3,-1 m 134,1 2,10 4,-1 -6,-9 m -126,2 -1,9 h 1 l 1,-4 h 1 l -1,5 4,-9 -3,3 v -4 h -2 m 128.667,0.667 -0.334,0.666 0.334,-0.666 M 624,593 v 9 h 5 l -5,-9 m -106,1 c -0.857,4.157 -2.853,8.139 1,11 l 1,-5 1,-6 h -3 m 96,0 -1,1 2,10 c 4.414,-2.591 2.446,-6.821 1,-11 h -2 m -125,2 1,1 -1,-1 m 38,3 h 1 v -2 h 1 c -0.596,3.459 -4.925,7.939 0,9 l 2,-9 c -2.697,-0.854 -3.386,-0.851 -4,2 m 77,-3 1,10 c 4.881,-0.573 2.774,-4.721 0,-7 v -1 l 2,-2 h -3 m 11.667,0.667 -0.334,0.666 0.334,-0.666 M 645,596 l 1,1 -1,-1 m -107,1 -3,7 3,3 h 1 l 1,-10 h -2 m 12,0 -3,8 h 1 l 2,-8 m 7,1 2,2 -3,9 c 3.477,-2.635 4.972,-8.348 1,-11 m 28,0 v 10 h 2 c 0.869,-4.248 3.153,-8.283 -2,-10 m 10,0 v 9 h 4 l -4,-9 m 31,0 -1,1 1,-1 m -60,1 1,10 h 1 l 2,-10 h -4 m 10,0 -1,10 h 1 2 1 l -1,-10 h -2 m 10.667,1.667 -0.334,0.666 0.334,-0.666 M 617,600 v 3 h -1 l 1,-3 m -79.333,1.667 -0.334,0.666 0.334,-0.666 M 597,603 l -1,1 1,-1 m -51,3 -1,4 h 1 v -4 m 469,304 v 2 H 65 v -2 h 950 M 85,943 v 5 h 14 v 2 H 85 v 11 h 15 v 2 H 87 l 13,13 -15,-12 v 14 H 83 V 964 L 68,976 81,963 H 68 v -2 H 83 V 950 H 70 v -2 h 13 v -5 h 2 m 38,1 -2,5 h 14 v 29 c -7.82,-2.996 -17.18,-2.996 -25,0 v -29 c 4.783,-0.017 8.453,0.098 10,-5 h 3 m 27,0 -7,8 5,-8 h 2 m 9,0 v 9 h 4 v -6 h 1 v 8 h -11 v -8 h 1 v 6 h 4 l 1,-9 m 11,0 -1,7 h 8 c -3.116,9.898 -5.903,16.905 0,26 l -1,1 -4,-6 -8,6 c 3.612,-7.901 4.715,-10.228 4,-19 l -16,2 v -2 c 11.644,0 15.744,-2.66 16,-15 h 2 m 21,0 c -4.208,10.928 -3,22.441 -3,34 h -2 v -22 l -5,4 8,-16 h 2 m 10,0 2,5 -2,-5 m 31,0 v 34 h -2 v -10 l -9,3 -1,-1 1,-22 h 2 v 20 c 10.069,-3.56 7,-15.05 7,-24 h 2 m 9,0 -1,7 h 13 c -6.274,10.485 -8.732,16.544 0,26 -4.237,-0.188 -6.204,-2.241 -8,-6 l -11,6 c 7.476,-7.278 7.294,-9.324 4,-19 l -4,4 5,-18 h 2 m 27,0 h 1 c 3.254,2.465 6.746,2.465 10,0 h 1 1 l 9,2 v 2 h -9 l 1,5 h 9 v 2 h -9 l 1,12 4,-9 h 1 l -1,19 h 2 l 1,-5 h 1 c -0.685,5.949 -4.844,6.872 -7,1 l -7,5 2,-4 -9,2 h -1 v -18 h 10 v 1 h -4 v 4 h 4 v 6 h -4 v 4 c 10.022,0.037 6.005,-11.013 6,-18 h -15 l -3,23 h -1 l 2,-11 h -4 l -2,11 h -1 v -13 h 7 v -3 h -5 v -9 h 1 v 7 h 4 v -7 h 17 l -2,-5 -11,3 -1,-3 h -9 v -2 l 10,-2 m -54,6 v 2 h -23 v -2 h 23 m 73,0 2,1 v 1 l -2,-2 m -175,1 v 6 h 21 v -6 h -21 m -37,1 2,7 h -1 l -1,-7 m 20,0 -4,7 4,-7 m 56,0 -2,26 h -2 v -18 l -3,4 h -1 l 6,-12 h 2 m 17,1 2,14 h 1 l 3,-14 h -6 m 71,0 5,14 4,-14 h -9 m -28,2 v 2 h -17 v -2 h 17 m -99,4 v 7 h 21 v -7 h -21 m 158,0 v 4 h 4 v -4 h -4 m -59,2 v 2 h -17 v -2 h 17 m -48,3 v 7 l 3,-1 v 1 l -5,3 v -8 h -6 l -2,12 h -1 l 2,-14 h 9 m 107,0 v 4 h 8 v -4 h -8 m -58,3 v 11 h -18 v -11 h 18 m -100,1 v 6 h 21 v -6 h -21 m 83,1 v 6 h 15 v -6 h -15 m 75,0 v 4 l 4,-4 z"
       id="path48"
       clip-path="url(#clipPath252)" />
  </g>
</svg>
